<?xml version="1.0" encoding="UTF-8"?>
<svg xmlns="http://www.w3.org/2000/svg" xmlns:xlink="http://www.w3.org/1999/xlink" width="528pt" height="424.499987pt" viewBox="0 0 528 424.499987" version="1.2">
<defs>
<clipPath id="clip1">
  <path d="M 0.3125 0 L 527.6875 0 L 527.6875 424 L 0.3125 424 Z M 0.3125 0 "/>
</clipPath>
<clipPath id="clip2">
  <path d="M 0.3125 0 L 527.6875 0 L 527.6875 85 L 0.3125 85 Z M 0.3125 0 "/>
</clipPath>
</defs>
<g id="surface1">
<g clip-path="url(#clip1)" clip-rule="nonzero">
<path style=" stroke:none;fill-rule:nonzero;fill:rgb(100%,100%,100%);fill-opacity:1;" d="M 0.3125 0 L 527.6875 0 L 527.6875 431.492188 L 0.3125 431.492188 Z M 0.3125 0 "/>
<path style=" stroke:none;fill-rule:nonzero;fill:rgb(100%,100%,100%);fill-opacity:1;" d="M 0.3125 0 L 527.6875 0 L 527.6875 424 L 0.3125 424 Z M 0.3125 0 "/>
<path style=" stroke:none;fill-rule:nonzero;fill:rgb(98.81897%,98.81897%,98.81897%);fill-opacity:1;" d="M 0.3125 0 L 527.6875 0 L 527.6875 424 L 0.3125 424 Z M 0.3125 0 "/>
<path style=" stroke:none;fill-rule:nonzero;fill:rgb(100%,99.609375%,99.609375%);fill-opacity:1;" d="M 0.3125 0 L 530.894531 0 L 530.894531 428.441406 L 0.3125 428.441406 Z M 0.3125 0 "/>
</g>
<g clip-path="url(#clip2)" clip-rule="nonzero">
<path style=" stroke:none;fill-rule:nonzero;fill:rgb(20.388794%,22.749329%,25.099182%);fill-opacity:1;" d="M 0.332031 0 L 531.902344 0 L 531.902344 84.5 L 0.332031 84.5 Z M 0.332031 0 "/>
</g>
</g>
</svg>
